# xmcd CD database file
#
# Track frame offsets:
#	150
#	11395
#	24012
#	40320
#	56787
#	69190
#	83932
#	112705
#	138847
#	158410
#	183882
#	201127
#
# Disc length: 2935 seconds
#
# Revision: 1
# Processed by: cddbd v1.5.2PL0 Copyright (c) Steve Scherf et al.
# Submitted via: CDex 1.51
#
DISCID=830b750c
DTITLE=Lowell Fulson with Lee Allen - The Blues Show! Live At Pit Inn
DYEAR=1900
DGENRE=Blues
TTITLE0=Jumpin' With L.F.
TTITLE1=You're Gonna Miss Me
TTITLE2=Going To Chicago
TTITLE3=Blue Shadows
TTITLE4=Talkin' Woman
TTITLE5=Everyday I Have The Blues
TTITLE6=River Blues
TTITLE7=Walkin' With Mr.Lee
TTITLE8=Reconsider Baby
TTITLE9=Blues Pain
TTITLE10=Sinner's Prayer
TTITLE11=Tramp
EXTD=
EXTT0=
EXTT1=
EXTT2=
EXTT3=
EXTT4=
EXTT5=
EXTT6=
EXTT7=
EXTT8=
EXTT9=
EXTT10=
EXTT11=
PLAYORDER=
